General
      Complete name : A.Fei.zheng.chuan.[Days.Of.Being.Wild].1990.BRRip.H264.AAC.5.1ch.Gopo.mp4
      Format : MPEG-4
      Format profile : Base Media
      Codec ID : isom
      File size : 1.55 GiB
      Duration : 1h 34mn
      Overall bit rate : 2 346 Kbps
      Encoded date : UTC 2010-01-09 17:25:11
      Tagged date : UTC 2010-01-09 17:25:11
      Writing application : Yamb 2.1.0.0 [http://yamb.unite-video.com]
   Video #1
      ID : 1
      Format : AVC
      Format/Info : Advanced Video Codec
      Format profile : High@L4.1
      Format settings, CABAC : Yes
      Format settings, ReFrames : 5 frames
      Codec ID : avc1
      Codec ID/Info : Advanced Video Coding
      Duration : 1h 34mn
      Bit rate mode : Variable
      Bit rate : 2 009 Kbps
      Maximum bit rate : 8 700 Kbps
      Width : 1 280 pixels
      Height : 720 pixels
      Display aspect ratio : 16:9
      Frame rate mode : Constant
      Frame rate : 24.000 fps
      Resolution : 24 bits
      Colorimetry : 4:2:0
      Scan type : Progressive
      Bits/(Pixel*Frame) : 0.091
      Stream size : 1.33 GiB (86%)
      Writing library : x264 core 79 r1360 528c100
      Encoding settings : cabac=1 / ref=5 / deblock=1:0:0 / analyse=0x3:0x113 / me=umh / subme=8 / psy=1 / psy_rd=1.0:0.0 / mixed_ref=1 / me_range=16 / chroma_me=1 / trellis=2 / 8x8dct=1 / cqm=0 / deadzone=21,11 / chroma_qp_offset=-2 / threads=1 / nr=0 / decimate=1 / mbaff=0 / constrained_intra=0 / bframes=3 / b_pyramid=0 / b_adapt=2 / b_bias=0 / direct=3 / wpredb=1 / wpredp=2 / keyint=250 / keyint_min=25 / scenecut=40 / rc_lookahead=30 / rc=2pass / mbtree=1 / bitrate=2009 / ratetol=1.0 / qcomp=0.50 / qpmin=10 / qpmax=51 / qpstep=4 / cplxblur=20.0 / qblur=0.5 / vbv_maxrate=24000 / vbv_bufsize=24000 / ip_ratio=1.10 / aq=1:1.00
      Encoded date : UTC 2010-01-07 07:30:27
      Tagged date : UTC 2010-01-09 17:27:37
   Audio #2
      ID : 2
      Format : AAC
      Format/Info : Advanced Audio Codec
      Format version : Version 4
      Format profile : LC
      Format settings, SBR : No
      Codec ID : 40
      Duration : 1h 34mn
      Bit rate mode : Variable
      Bit rate : 333 Kbps
      Maximum bit rate : 404 Kbps
      Channel(s) : 6 channels
      Channel positions : Front: L C R, Rear: L R, LFE
      Sampling rate : 48.0 KHz
      Resolution : 16 bits
      Stream size : 226 MiB (14%)
      Encoded date : UTC 2010-01-09 17:27:22
      Tagged date : UTC 2010-01-09 17:27:37
	Sample : YES
	Subtitle : English,Romanian

PLOT

Set in 1960, the film centres on the young, boyishly handsome Yuddy, who learns from the drunken ex-prostitute who raised him that she is not his real mother. Hoping to hold onto him, she refuses to divulge the name of his real birth mother. The revelation shakes Yuddy to his very core, unleashing a cascade of conflicting emotions. Two women have the bad luck to fall for Yuddy. One is a quiet lass named Su Lizhen who works at a sports arena, while the other is a glitzy showgirl named Mimi. Perhaps due to his unresolved Oedipal issues, he passively lets the two compete for him, unable or unwilling to make a choice. As Lizhen slowly confides her frustration to a cop named Tide, he falls for her. The same is true for Yuddy's friend Zeb, who falls for Mimi. Later, Yuddy learns of his birth mother's whereabouts and heads out to the Philippines.
Director: Kar Wai Wong
CASTING 
     
      Leslie Cheung	... 	Yuddy
	Maggie Cheung	... 	Su Li-zhen
	Andy Lau	... 	Tide
	Carina Lau	... 	Leung Fung-ying
	Rebecca Pan	... 	Rebecca (as Tik-Wa Poon)
	Jacky Cheung	... 	Zeb
	Danilo Antunes	... 	Rebecca's Lover
	Mei-Mei Hung	... 	The Amah
	Ling-Hung Ling	... 	Nurse
	Tita Muñoz	... 	Yuddy's Mother
	Alicia Alonzo	... 	Housekeeper
	Elena Lim So	... 	Hotel Manageress
	Maritoni Fernandez	... 	Hotel Maid
	Angela Ponos	... 	Prostitute
	Nonong Talbo	... 	Train Conductor

SOURCE: Days.Of.Being.Wild.1990.720p.BluRay.x264-Japhson.mkv

Notes: For best performance I suggest you to use KMPlayer(find it with google) for playback
I haven't tested the movies on a PS3 or Xbox or other devices than PC because I don't own one of them but feel free to test them if you have the oportunity.
